<svg width="800" height="600" xmlns="http://www.w3.org/2000/svg">
 <g id="Layer_1">
  <title>Layer 1</title>
  <path transform="rotate(33.4425 411.5 275.642)" stroke-width="20" d="m227,378.5c0,0 1.04671,0.96539 4,5c5.08104,6.94141 11.10094,16.6507 20,28c10.04468,12.81033 21.06161,24.94431 31,36c8.05014,8.95517 15.73578,17.23541 22,24c6.7262,7.26349 14,13 19,17c5,4 9.92767,7.23172 16,9c3.95868,1.15277 7.05164,1.64072 11,1c6.24289,-1.01309 18.70911,-8.26724 27,-17c22.04343,-23.21826 53.01807,-69.44516 81,-122c34.25946,-64.34509 66.12842,-135.94574 91,-195c18.09351,-42.96073 28.75586,-67.64152 37,-86c8.82428,-19.65025 10,-24 10,-26l0,0" id="svg_2" stroke="#ffffff" fill="none"/>
  <path id="svg_3" d="m512,305.5c72,45 133,60 133,59.5c0,0.5 -5,-141.5 -5,-142" opacity="NaN" stroke-width="20" stroke="#ffffff" fill="none"/>
  <text transform="rotate(-33.5006 590.445 290.5)" font-weight="bold" font-style="normal" fill="#000000" stroke="#e5e5e5" stroke-width="2" x="554" y="297.5" id="svg_5" font-size="22" font-family="'Signika'" text-anchor="start" xml:space="preserve">Holly C.</text>
 </g>

</svg>